<mxfile host="Electron" modified="2024-05-10T21:45:31.968Z" agent="Mozilla/5.0 (Windows NT 10.0; Win64; x64) AppleWebKit/537.36 (KHTML, like Gecko) draw.io/24.2.5 Chrome/120.0.6099.109 Electron/28.1.0 Safari/537.36" etag="6uF9GQm2zjLfQrP_KEp6" version="24.2.5" type="device">
  <diagram name="Page-1" id="9pERSKBjlrnfeII0PRjf">
    <mxGraphModel dx="1709" dy="991" grid="1" gridSize="10" guides="1" tooltips="1" connect="1" arrows="1" fold="1" page="1" pageScale="1" pageWidth="827" pageHeight="1169" math="0" shadow="0">
      <root>
        <mxCell id="0" />
        <mxCell id="1" parent="0" />
        <UserObject label="argStr.length() &lt; 2" link="argStr.length() &lt; 2" id="2fdlu2iqmhFaFrSU-974-3">
          <mxCell style="rhombus;whiteSpace=wrap;html=1;shadow=0;fontFamily=Helvetica;fontSize=12;align=center;strokeWidth=1;spacing=6;spacingTop=-4;" vertex="1" parent="1">
            <mxGeometry x="290.75" y="360" width="172.5" height="50" as="geometry" />
          </mxCell>
        </UserObject>
        <mxCell id="2fdlu2iqmhFaFrSU-974-4" style="edgeStyle=orthogonalEdgeStyle;rounded=0;orthogonalLoop=1;jettySize=auto;html=1;entryX=0.437;entryY=0.014;entryDx=0;entryDy=0;endArrow=block;endFill=0;entryPerimeter=0;" edge="1" parent="1" source="2fdlu2iqmhFaFrSU-974-3" target="2fdlu2iqmhFaFrSU-974-11">
          <mxGeometry relative="1" as="geometry">
            <Array as="points">
              <mxPoint x="489" y="385" />
              <mxPoint x="489" y="471" />
            </Array>
            <mxPoint x="489" y="463" as="targetPoint" />
          </mxGeometry>
        </mxCell>
        <mxCell id="2fdlu2iqmhFaFrSU-974-5" value="true" style="edgeLabel;html=1;align=center;verticalAlign=middle;resizable=0;points=[];fontSize=15;" vertex="1" connectable="0" parent="2fdlu2iqmhFaFrSU-974-4">
          <mxGeometry x="0.1592" y="3" relative="1" as="geometry">
            <mxPoint as="offset" />
          </mxGeometry>
        </mxCell>
        <mxCell id="2fdlu2iqmhFaFrSU-974-6" style="edgeStyle=orthogonalEdgeStyle;rounded=0;orthogonalLoop=1;jettySize=auto;html=1;endArrow=block;endFill=0;fontSize=14;entryX=0.5;entryY=0;entryDx=0;entryDy=0;" edge="1" parent="1" source="2fdlu2iqmhFaFrSU-974-3" target="2fdlu2iqmhFaFrSU-974-14">
          <mxGeometry relative="1" as="geometry">
            <mxPoint x="290" y="492" as="targetPoint" />
            <Array as="points">
              <mxPoint x="286" y="380" />
            </Array>
          </mxGeometry>
        </mxCell>
        <mxCell id="2fdlu2iqmhFaFrSU-974-7" value="false" style="edgeLabel;html=1;align=center;verticalAlign=middle;resizable=0;points=[];fontSize=15;" vertex="1" connectable="0" parent="2fdlu2iqmhFaFrSU-974-6">
          <mxGeometry x="-0.0475" y="2" relative="1" as="geometry">
            <mxPoint as="offset" />
          </mxGeometry>
        </mxCell>
        <mxCell id="2fdlu2iqmhFaFrSU-974-8" value="Start" style="rounded=1;whiteSpace=wrap;html=1;fontSize=12;glass=0;strokeWidth=1;shadow=0;" vertex="1" parent="1">
          <mxGeometry x="318" y="260" width="120" height="40" as="geometry" />
        </mxCell>
        <mxCell id="2fdlu2iqmhFaFrSU-974-9" style="edgeStyle=orthogonalEdgeStyle;rounded=0;orthogonalLoop=1;jettySize=auto;html=1;entryX=0.5;entryY=0;entryDx=0;entryDy=0;" edge="1" parent="1" source="2fdlu2iqmhFaFrSU-974-8" target="2fdlu2iqmhFaFrSU-974-3">
          <mxGeometry relative="1" as="geometry">
            <mxPoint x="402" y="695" as="sourcePoint" />
            <mxPoint x="377" y="280" as="targetPoint" />
          </mxGeometry>
        </mxCell>
        <mxCell id="2fdlu2iqmhFaFrSU-974-11" value="return argStr" style="rounded=1;whiteSpace=wrap;html=1;fontSize=12;glass=0;strokeWidth=1;shadow=0;" vertex="1" parent="1">
          <mxGeometry x="438" y="490" width="120" height="40" as="geometry" />
        </mxCell>
        <mxCell id="2fdlu2iqmhFaFrSU-974-12" value="End" style="rounded=1;whiteSpace=wrap;html=1;fontSize=12;glass=0;strokeWidth=1;shadow=0;" vertex="1" parent="1">
          <mxGeometry x="370" y="730" width="120" height="40" as="geometry" />
        </mxCell>
        <mxCell id="2fdlu2iqmhFaFrSU-974-13" style="edgeStyle=orthogonalEdgeStyle;rounded=0;orthogonalLoop=1;jettySize=auto;html=1;entryX=1;entryY=0.25;entryDx=0;entryDy=0;exitX=0.5;exitY=1;exitDx=0;exitDy=0;" edge="1" parent="1" source="2fdlu2iqmhFaFrSU-974-11" target="2fdlu2iqmhFaFrSU-974-12">
          <mxGeometry relative="1" as="geometry">
            <mxPoint x="388" y="310" as="sourcePoint" />
            <mxPoint x="387" y="370" as="targetPoint" />
            <Array as="points">
              <mxPoint x="490" y="530" />
            </Array>
          </mxGeometry>
        </mxCell>
        <UserObject label="cur!=&#39;\n&#39;" link="argStr.length() &lt; 2" id="2fdlu2iqmhFaFrSU-974-14">
          <mxCell style="rhombus;whiteSpace=wrap;html=1;shadow=0;fontFamily=Helvetica;fontSize=12;align=center;strokeWidth=1;spacing=6;spacingTop=-4;" vertex="1" parent="1">
            <mxGeometry x="240" y="490" width="90" height="50" as="geometry" />
          </mxCell>
        </UserObject>
        <UserObject label="last != &#39;\n&#39;" link="argStr.length() &lt; 2" id="2fdlu2iqmhFaFrSU-974-15">
          <mxCell style="rhombus;whiteSpace=wrap;html=1;shadow=0;fontFamily=Helvetica;fontSize=12;align=center;strokeWidth=1;spacing=6;spacingTop=-4;" vertex="1" parent="1">
            <mxGeometry x="140" y="590" width="172.5" height="50" as="geometry" />
          </mxCell>
        </UserObject>
        <mxCell id="2fdlu2iqmhFaFrSU-974-17" style="edgeStyle=orthogonalEdgeStyle;rounded=0;orthogonalLoop=1;jettySize=auto;html=1;endArrow=block;endFill=0;fontSize=14;exitX=0;exitY=0.5;exitDx=0;exitDy=0;entryX=0.5;entryY=0;entryDx=0;entryDy=0;" edge="1" parent="1" source="2fdlu2iqmhFaFrSU-974-14" target="2fdlu2iqmhFaFrSU-974-15">
          <mxGeometry relative="1" as="geometry">
            <mxPoint x="210" y="650" as="targetPoint" />
            <Array as="points">
              <mxPoint x="210" y="515" />
              <mxPoint x="210" y="570" />
              <mxPoint x="226" y="570" />
            </Array>
            <mxPoint x="190" y="515" as="sourcePoint" />
          </mxGeometry>
        </mxCell>
        <mxCell id="2fdlu2iqmhFaFrSU-974-18" value="false" style="edgeLabel;html=1;align=center;verticalAlign=middle;resizable=0;points=[];fontSize=15;" vertex="1" connectable="0" parent="2fdlu2iqmhFaFrSU-974-17">
          <mxGeometry x="-0.0475" y="2" relative="1" as="geometry">
            <mxPoint as="offset" />
          </mxGeometry>
        </mxCell>
        <mxCell id="2fdlu2iqmhFaFrSU-974-21" style="edgeStyle=orthogonalEdgeStyle;rounded=0;orthogonalLoop=1;jettySize=auto;html=1;endArrow=block;endFill=0;exitX=1;exitY=0.5;exitDx=0;exitDy=0;entryX=0.07;entryY=0.032;entryDx=0;entryDy=0;entryPerimeter=0;" edge="1" parent="1" source="2fdlu2iqmhFaFrSU-974-14" target="2fdlu2iqmhFaFrSU-974-12">
          <mxGeometry relative="1" as="geometry">
            <Array as="points">
              <mxPoint x="330" y="520" />
              <mxPoint x="380" y="520" />
              <mxPoint x="380" y="696" />
            </Array>
            <mxPoint x="380" y="620" as="targetPoint" />
            <mxPoint x="382.5" y="510" as="sourcePoint" />
          </mxGeometry>
        </mxCell>
        <mxCell id="2fdlu2iqmhFaFrSU-974-22" value="true" style="edgeLabel;html=1;align=center;verticalAlign=middle;resizable=0;points=[];fontSize=15;" vertex="1" connectable="0" parent="2fdlu2iqmhFaFrSU-974-21">
          <mxGeometry x="0.1592" y="3" relative="1" as="geometry">
            <mxPoint as="offset" />
          </mxGeometry>
        </mxCell>
        <mxCell id="2fdlu2iqmhFaFrSU-974-23" style="edgeStyle=orthogonalEdgeStyle;rounded=0;orthogonalLoop=1;jettySize=auto;html=1;endArrow=block;endFill=0;fontSize=14;exitX=0;exitY=0.5;exitDx=0;exitDy=0;entryX=0;entryY=1;entryDx=0;entryDy=0;" edge="1" parent="1" source="2fdlu2iqmhFaFrSU-974-15" target="2fdlu2iqmhFaFrSU-974-12">
          <mxGeometry relative="1" as="geometry">
            <mxPoint x="126" y="715" as="targetPoint" />
            <Array as="points">
              <mxPoint x="126" y="615" />
              <mxPoint x="126" y="770" />
            </Array>
            <mxPoint x="140" y="640" as="sourcePoint" />
          </mxGeometry>
        </mxCell>
        <mxCell id="2fdlu2iqmhFaFrSU-974-24" value="false" style="edgeLabel;html=1;align=center;verticalAlign=middle;resizable=0;points=[];fontSize=15;" vertex="1" connectable="0" parent="2fdlu2iqmhFaFrSU-974-23">
          <mxGeometry x="-0.0475" y="2" relative="1" as="geometry">
            <mxPoint as="offset" />
          </mxGeometry>
        </mxCell>
        <UserObject label="argBuf.append(cur)" link="argBuf.append(cur)" id="2fdlu2iqmhFaFrSU-974-25">
          <mxCell style="rounded=1;whiteSpace=wrap;html=1;fontSize=12;glass=0;strokeWidth=1;shadow=0;" vertex="1" parent="1">
            <mxGeometry x="230" y="670" width="120" height="40" as="geometry" />
          </mxCell>
        </UserObject>
        <mxCell id="2fdlu2iqmhFaFrSU-974-26" style="edgeStyle=orthogonalEdgeStyle;rounded=0;orthogonalLoop=1;jettySize=auto;html=1;endArrow=block;endFill=0;entryX=0.68;entryY=-0.029;entryDx=0;entryDy=0;entryPerimeter=0;exitX=1;exitY=0.5;exitDx=0;exitDy=0;" edge="1" parent="1" source="2fdlu2iqmhFaFrSU-974-15" target="2fdlu2iqmhFaFrSU-974-25">
          <mxGeometry relative="1" as="geometry">
            <Array as="points">
              <mxPoint x="312" y="610" />
            </Array>
            <mxPoint x="388" y="811" as="targetPoint" />
            <mxPoint x="340" y="530" as="sourcePoint" />
          </mxGeometry>
        </mxCell>
        <mxCell id="2fdlu2iqmhFaFrSU-974-27" value="true" style="edgeLabel;html=1;align=center;verticalAlign=middle;resizable=0;points=[];fontSize=15;" vertex="1" connectable="0" parent="2fdlu2iqmhFaFrSU-974-26">
          <mxGeometry x="0.1592" y="3" relative="1" as="geometry">
            <mxPoint as="offset" />
          </mxGeometry>
        </mxCell>
        <mxCell id="2fdlu2iqmhFaFrSU-974-28" style="edgeStyle=orthogonalEdgeStyle;rounded=0;orthogonalLoop=1;jettySize=auto;html=1;entryX=0;entryY=0.25;entryDx=0;entryDy=0;exitX=0.608;exitY=1.1;exitDx=0;exitDy=0;exitPerimeter=0;" edge="1" parent="1" source="2fdlu2iqmhFaFrSU-974-25" target="2fdlu2iqmhFaFrSU-974-12">
          <mxGeometry relative="1" as="geometry">
            <mxPoint x="388" y="310" as="sourcePoint" />
            <mxPoint x="387" y="370" as="targetPoint" />
            <Array as="points">
              <mxPoint x="300" y="714" />
              <mxPoint x="300" y="740" />
            </Array>
          </mxGeometry>
        </mxCell>
      </root>
    </mxGraphModel>
  </diagram>
</mxfile>
